<svg width="383" height="343" viewBox="0 0 383 343" fill="none" xmlns="http://www.w3.org/2000/svg">
<path d="M375.066 230.441C375.129 270.746 361.767 309.924 337.09 341.791H48.6233C23.9456 309.924 10.5837 270.746 10.6467 230.441C10.6467 129.808 92.2279 48.235 192.861 48.235C293.493 48.235 375.066 129.811 375.066 230.441Z" fill="#1C172F"/>
<path d="M375.066 230.441C375.129 270.746 361.767 309.924 337.09 341.791H48.6233C23.9456 309.924 10.5837 270.746 10.6467 230.441C10.6467 129.808 92.2279 48.235 192.861 48.235C293.493 48.235 375.066 129.811 375.066 230.441Z" fill="white"/>
<path d="M282.876 342.377H206.236L201.637 281.209L280.131 283.973C280.131 283.973 281.081 276.841 281.128 290.36C281.159 299.738 283.118 318.331 282.876 342.377Z" fill="#262626"/>
<path d="M234.104 277.695C234.033 279.152 233.953 280.616 233.859 282.072C232.638 302.362 229.832 322.526 225.466 342.378H148.866C149.863 311.319 150.695 286.719 150.695 286.719L201.636 281.21L204.691 280.875L234.104 277.695Z" fill="#262626"/>
<path d="M252.579 70.4189C252.579 70.4189 253.448 90.4254 257.77 97.7777C270.223 118.943 273.425 142.502 260.183 154.462C246.941 166.423 164.297 164.67 158.694 136.32C153.976 112.452 165.346 110.161 168.554 90.6373C170.006 81.8033 173.864 63.2972 173.864 63.2972" fill="#0A0A0A"/>
<path d="M181.865 133.204C182.008 133.185 183.591 159.458 214.113 157.168C235.244 155.585 242.778 133.166 243.261 133.166C240.983 132.682 237.147 131.978 236.135 131.438C232.808 129.65 228.691 127.79 227.619 121.329C227 117.604 228.049 98.5521 227.726 94.7841L195.291 102.023C195.744 109.982 198.917 128.43 187.799 131.697C185.949 132.235 183.957 132.731 181.865 133.204Z" fill="#E98862"/>
<path opacity="0.52" d="M194.837 124.156C195.345 122.518 195.672 120.83 195.813 119.122C196.169 115.223 196.098 111.297 195.601 107.413C202.193 106.524 208.404 103.803 213.527 99.5591C214.128 101.783 217.441 111.502 216.524 113.616C214.791 117.612 206.645 124.156 194.837 124.156Z" fill="#0C0C0C"/>
<path d="M197.743 115.852C210.498 117.389 227.159 112.658 230.981 95.7123L234.431 80.4229C238.254 63.478 232.452 47.7335 216.498 44.1325C200.544 40.5329 185.519 51.5797 181.696 68.5266L180.169 75.2954C178.703 81.7963 174.985 113.114 197.743 115.852Z" fill="#E98862"/>
<path d="M194.692 97.1327C197.141 97.1787 199.545 97.7995 201.71 98.9452C201.797 98.9925 201.863 99.0721 201.893 99.1671C201.922 99.262 201.914 99.3648 201.869 99.4536C201.824 99.5425 201.747 99.6103 201.653 99.6428C201.559 99.6753 201.456 99.6698 201.366 99.6276C196.695 97.2724 192.316 97.2924 188.703 99.6857C188.63 99.7363 188.554 99.7832 188.476 99.8261C188.386 99.8639 188.285 99.8658 188.193 99.8314C188.102 99.797 188.027 99.7288 187.984 99.641C187.942 99.5531 187.934 99.4522 187.963 99.359C187.993 99.2657 188.057 99.1873 188.142 99.1397C188.171 99.1237 188.218 99.0916 188.284 99.0481C190.182 97.7863 192.413 97.1194 194.692 97.1327V97.1327Z" fill="#0C0C0C"/>
<path d="M194.069 91.9452H194.037C193.381 91.8454 192.731 91.7095 192.091 91.5382C191.133 91.2756 189.875 90.8264 189.999 89.967C190.14 88.9872 194.353 78.8058 194.833 77.6483C194.853 77.5968 194.882 77.5497 194.921 77.5099C194.959 77.4702 195.005 77.4385 195.055 77.4167C195.106 77.3949 195.161 77.3836 195.216 77.3832C195.271 77.3829 195.326 77.3937 195.377 77.4148C195.428 77.436 195.474 77.4672 195.513 77.5065C195.551 77.5458 195.582 77.5925 195.602 77.6438C195.623 77.6951 195.632 77.75 195.631 77.8052C195.63 77.8603 195.618 77.9147 195.595 77.9651C193.798 82.3005 190.911 89.4256 190.816 90.0853C190.936 90.3833 192.528 90.8919 194.158 91.1279C194.263 91.1437 194.358 91.1995 194.423 91.2836C194.488 91.3677 194.518 91.4737 194.507 91.5794C194.496 91.6852 194.444 91.7826 194.363 91.8513C194.282 91.9201 194.178 91.9549 194.071 91.9486L194.069 91.9452Z" fill="#0C0C0C"/>
<path d="M247.092 86.2352L232.789 83.0941C222.04 78.3015 219.401 59.3108 219.401 59.3108C219.401 59.3108 205.707 71.7578 173.867 63.2968C173.867 63.2968 181.863 18.7612 228.826 33.429C243.969 38.1588 254.405 53.9468 252.319 74.4933C250.855 88.8878 247.092 86.2352 247.092 86.2352Z" fill="#0A0A0A"/>
<path d="M228.825 100.65C233.673 101.744 238.774 97.4423 239.868 92.5955C240.962 87.7488 237.635 84.1859 232.784 83.0925L229.552 85.7772L224.656 99.7146L228.825 100.65Z" fill="#E98862"/>
<path d="M192.225 68.5977C190.834 67.6287 189.207 67.0517 187.516 66.9268C186.683 66.8606 185.846 66.9199 185.031 67.1026C184.224 67.2801 183.443 67.5585 182.706 67.9313C182.604 67.9794 182.526 68.0652 182.487 68.1704C182.447 68.2756 182.451 68.3919 182.496 68.4946C182.541 68.5973 182.625 68.6783 182.729 68.7204C182.833 68.7625 182.949 68.7623 183.053 68.72L183.084 68.7073C183.764 68.4021 184.48 68.1834 185.215 68.0563C185.941 67.927 186.682 67.9083 187.414 68.0008C188.866 68.1735 190.246 68.7269 191.415 69.6048L191.453 69.6349C191.588 69.7405 191.76 69.7879 191.931 69.7667C192.101 69.7455 192.256 69.6575 192.362 69.522C192.467 69.3864 192.515 69.2146 192.494 69.0441C192.472 68.8736 192.384 68.7186 192.249 68.613L192.225 68.5977Z" fill="#0C0C0C"/>
<path d="M204.721 71.4936C206.152 71.1953 207.637 71.2811 209.025 71.7422C209.726 71.9699 210.389 72.3023 210.992 72.728C211.603 73.1552 212.157 73.6575 212.643 74.2231L212.665 74.2471C212.741 74.3293 212.846 74.3786 212.958 74.3846C213.07 74.3906 213.18 74.3529 213.264 74.2795C213.349 74.206 213.401 74.1025 213.411 73.991C213.42 73.8794 213.386 73.7685 213.315 73.6817C212.807 73.0312 212.218 72.4474 211.563 71.9441C210.904 71.432 210.171 71.0222 209.39 70.7284C207.806 70.1214 206.088 69.9516 204.417 70.2365C204.331 70.2493 204.249 70.2792 204.175 70.3244C204.101 70.3695 204.037 70.429 203.987 70.4994C203.936 70.5697 203.9 70.6494 203.881 70.7338C203.862 70.8183 203.86 70.9057 203.875 70.9909C203.891 71.0761 203.923 71.1574 203.97 71.23C204.017 71.3025 204.078 71.3649 204.15 71.4134C204.222 71.4619 204.303 71.4955 204.387 71.5122C204.472 71.529 204.56 71.5286 204.645 71.511L204.671 71.5056L204.721 71.4936Z" fill="#0C0C0C"/>
<path d="M232.761 82.9103L232.917 82.5167C214.905 75.3328 219.99 57.5879 220.043 57.4088L219.638 57.2872C219.585 57.469 214.383 75.5807 232.761 82.9103Z" fill="#0C0C0C"/>
<path d="M184.473 75.8022C185.585 75.8022 186.487 74.9003 186.487 73.7878C186.487 72.6754 185.585 71.7735 184.473 71.7735C183.36 71.7735 182.458 72.6754 182.458 73.7878C182.458 74.9003 183.36 75.8022 184.473 75.8022Z" fill="#0C0C0C"/>
<path d="M204.384 79.2301C205.496 79.2301 206.398 78.3282 206.398 77.2157C206.398 76.1032 205.496 75.2014 204.384 75.2014C203.271 75.2014 202.37 76.1032 202.37 77.2157C202.37 78.3282 203.271 79.2301 204.384 79.2301Z" fill="#0C0C0C"/>
<path opacity="0.1" d="M210.585 91.488C210.805 89.9489 209.283 88.4581 207.185 88.1581C205.087 87.8581 203.207 88.8625 202.987 90.4015C202.767 91.9405 204.29 93.4314 206.388 93.7314C208.486 94.0314 210.365 93.027 210.585 91.488Z" fill="#0C0C0C"/>
<path opacity="0.1" d="M184.301 87.0444C184.077 88.5816 182.198 89.5841 180.1 89.2873C179.737 89.235 179.381 89.1455 179.037 89.02C178.982 87.1801 179.017 85.411 179.109 83.7776C179.697 83.6453 180.304 83.6238 180.9 83.7141C182.998 84.0089 184.52 85.5019 184.301 87.0444Z" fill="#0C0C0C"/>
<path d="M34.6097 131.661C34.8905 131.105 35.3371 130.65 35.8878 130.358C36.4386 130.067 37.0662 129.954 37.684 130.034C37.6786 129.997 37.6823 129.959 37.6949 129.924C37.7075 129.888 37.7285 129.857 37.7561 129.831C37.7838 129.806 37.8172 129.787 37.8536 129.778C37.8899 129.768 37.9281 129.767 37.9647 129.776L35.8802 128.281C35.2566 127.855 34.8086 127.217 34.6189 126.485C34.4292 125.754 34.5107 124.978 34.8483 124.302C35.2034 123.645 35.7897 123.144 36.4935 122.895C37.1974 122.646 37.9686 122.667 38.6578 122.954C38.6524 122.925 38.6725 122.897 38.6772 122.867L37.8204 122.252C37.2344 121.848 36.8063 121.253 36.6084 120.569C36.4105 119.885 36.455 119.153 36.7343 118.498C36.918 118.091 37.1898 117.73 37.53 117.441C37.8702 117.151 38.2703 116.941 38.7016 116.825C39.1329 116.709 39.5846 116.69 40.0241 116.77C40.4635 116.85 40.8798 117.026 41.2429 117.286L43.2191 118.703C43.2251 118.691 43.2191 118.678 43.2271 118.666C43.2352 118.655 43.2566 118.651 43.2679 118.639C42.8136 118.129 42.5462 117.48 42.5098 116.798C42.4733 116.115 42.67 115.441 43.0674 114.885C44.0031 113.384 46.1538 113.691 47.4323 114.607L59.0653 122.643L56.9861 119.142C56.5684 118.468 56.4217 117.662 56.5756 116.884C56.7295 116.107 57.1726 115.416 57.8155 114.953C58.1559 114.725 58.5391 114.569 58.9418 114.494C59.3445 114.42 59.7583 114.428 60.1578 114.518C60.5573 114.608 60.9341 114.779 61.2655 115.02C61.5968 115.261 61.8755 115.567 62.0848 115.919L73.4391 135.033C74.771 137.275 75.1761 139.949 74.5684 142.485C73.9606 145.021 72.3879 147.221 70.1843 148.616V148.616C67.6288 150.234 64.6482 151.052 61.6247 150.965C58.6012 150.879 55.6725 149.891 53.214 148.129L35.6456 135.538C35.0612 135.103 34.6408 134.483 34.4528 133.78C34.2647 133.076 34.32 132.329 34.6097 131.661V131.661Z" fill="#E98862"/>
<g opacity="0.25">
<path d="M54.7338 126.649C54.6913 126.708 54.6273 126.748 54.5556 126.761C54.484 126.773 54.4102 126.757 54.3502 126.716L43.2967 119.055C43.2653 119.035 43.2384 119.009 43.2174 118.978C43.1965 118.947 43.182 118.912 43.1747 118.875C43.1675 118.839 43.1677 118.801 43.1753 118.765C43.1829 118.728 43.1978 118.693 43.2191 118.663C43.2404 118.632 43.2676 118.606 43.2992 118.586C43.3307 118.566 43.366 118.553 43.4029 118.546C43.4397 118.54 43.4774 118.542 43.5137 118.551C43.55 118.559 43.5842 118.575 43.6142 118.598L54.6677 126.254C54.7282 126.296 54.7695 126.361 54.7827 126.433C54.7958 126.506 54.7797 126.58 54.7379 126.641L54.7338 126.649Z" fill="#0C0C0C"/>
</g>
<g opacity="0.25">
<path d="M51.4927 131.615C51.4502 131.674 51.3862 131.714 51.3145 131.726C51.2428 131.739 51.1691 131.723 51.1091 131.681L38.7737 123.135C38.7131 123.093 38.6716 123.028 38.6584 122.956C38.6451 122.883 38.6611 122.809 38.7029 122.748C38.7465 122.689 38.8108 122.649 38.8828 122.636C38.9548 122.623 39.0291 122.638 39.0905 122.678L51.4266 131.222C51.4871 131.264 51.5284 131.329 51.5415 131.401C51.5547 131.474 51.5386 131.549 51.4967 131.609L51.4927 131.615Z" fill="#0C0C0C"/>
</g>
<g opacity="0.25">
<path d="M48.0108 137.016C47.9685 137.075 47.9046 137.115 47.833 137.127C47.7614 137.14 47.6877 137.124 47.6279 137.083L37.7873 130.266C37.7306 130.222 37.6927 130.158 37.6816 130.088C37.6705 130.017 37.687 129.945 37.7277 129.886C37.7685 129.827 37.8303 129.786 37.9003 129.771C37.9704 129.757 38.0434 129.77 38.1041 129.808L47.9446 136.625C48.0053 136.667 48.0468 136.731 48.06 136.804C48.0731 136.877 48.0569 136.952 48.0148 137.012L48.0108 137.016Z" fill="#0C0C0C"/>
</g>
<path d="M78.4458 128.137L106.704 193.396L145.695 140.031L179.485 170.491L121.783 245.221L121.405 245.756C119.095 248.919 116.018 251.443 112.464 253.088C108.91 254.733 104.995 255.447 101.089 255.161C97.1823 254.875 93.4132 253.599 90.1363 251.454C86.8594 249.308 84.1826 246.364 82.3582 242.898L41.7236 148.563L78.4458 128.137Z" fill="#008D06"/>
<path d="M109.975 200.225C110.047 200.225 110.119 200.206 110.182 200.171C110.245 200.135 110.298 200.084 110.336 200.022C110.374 199.96 110.395 199.89 110.398 199.817C110.401 199.745 110.385 199.673 110.352 199.608L107.083 193.204C107.03 193.107 106.941 193.035 106.836 193.003C106.731 192.97 106.617 192.98 106.519 193.03C106.421 193.08 106.346 193.166 106.31 193.271C106.275 193.375 106.281 193.489 106.328 193.589L109.597 199.994C109.633 200.064 109.687 200.122 109.753 200.163C109.82 200.203 109.897 200.225 109.975 200.225V200.225Z" fill="#0C0C0C"/>
<path d="M143.942 191.046C144.904 202.341 149.58 272.805 150.504 286.717H281.061C281.781 274.169 281.845 219.303 284.575 194.767C287.181 171.353 292.29 159.631 288.544 152.709C282.422 141.396 273.631 131.193 256.776 129.785C249.771 129.199 236.847 131.698 236.847 131.698C236.847 131.698 235.958 149.639 214.81 150.637C186.019 151.996 187.933 131.744 187.799 131.695C181.864 129.525 161.207 128.42 152.11 134.429C134.754 145.889 141.901 167.111 143.942 191.046Z" fill="#008D06"/>
<path d="M144.915 198.377L144.07 198.425L145.088 216.361L145.933 216.313L144.915 198.377Z" fill="#0C0C0C"/>
<path d="M382.604 139.581C382.273 139.053 381.787 138.641 381.212 138.402C380.638 138.163 380.003 138.107 379.396 138.244C379.398 138.206 379.39 138.169 379.374 138.135C379.359 138.101 379.335 138.071 379.305 138.048C379.275 138.026 379.24 138.01 379.203 138.004C379.166 137.998 379.128 138.001 379.092 138.013L381.03 136.332C381.612 135.85 381.999 135.173 382.121 134.428C382.242 133.682 382.09 132.917 381.691 132.275C381.277 131.654 380.647 131.209 379.923 131.026C379.199 130.843 378.433 130.935 377.774 131.284C377.774 131.254 377.754 131.228 377.747 131.198L378.543 130.508C379.089 130.051 379.461 129.419 379.594 128.72C379.728 128.02 379.617 127.296 379.278 126.67C379.058 126.281 378.754 125.947 378.388 125.69C378.023 125.433 377.605 125.261 377.165 125.185C376.725 125.109 376.273 125.132 375.843 125.252C375.413 125.372 375.015 125.585 374.677 125.878L372.839 127.47C372.833 127.459 372.839 127.445 372.829 127.435C372.818 127.425 372.798 127.423 372.786 127.412C373.191 126.862 373.396 126.191 373.369 125.508C373.343 124.825 373.084 124.172 372.637 123.656C371.568 122.247 369.454 122.751 368.266 123.78L357.422 132.853L359.17 129.177C359.525 128.468 359.598 127.65 359.373 126.889C359.148 126.129 358.643 125.482 357.959 125.079C357.599 124.884 357.203 124.763 356.795 124.726C356.387 124.688 355.976 124.735 355.586 124.861C355.197 124.988 354.837 125.193 354.529 125.463C354.222 125.734 353.972 126.064 353.797 126.434L344.251 146.513C343.132 148.868 342.974 151.567 343.813 154.037C344.652 156.507 346.42 158.552 348.743 159.739V159.739C351.436 161.115 354.48 161.655 357.483 161.29C360.485 160.925 363.311 159.671 365.597 157.69L381.931 143.533C382.472 143.047 382.833 142.391 382.955 141.674C383.077 140.957 382.953 140.219 382.604 139.581V139.581Z" fill="#E98862"/>
<g opacity="0.25">
<path d="M362.104 136.438C362.152 136.492 362.219 136.526 362.292 136.531C362.364 136.537 362.436 136.514 362.491 136.467L372.793 127.826C372.821 127.802 372.844 127.774 372.861 127.741C372.878 127.709 372.888 127.673 372.891 127.637C372.895 127.601 372.891 127.564 372.88 127.529C372.869 127.494 372.851 127.462 372.827 127.434C372.804 127.406 372.775 127.383 372.743 127.366C372.71 127.349 372.675 127.339 372.639 127.336C372.602 127.332 372.566 127.336 372.531 127.347C372.496 127.358 372.464 127.376 372.436 127.4L362.134 136.041C362.077 136.088 362.042 136.156 362.036 136.23C362.029 136.303 362.052 136.376 362.1 136.433L362.104 136.438Z" fill="#0C0C0C"/>
</g>
<g opacity="0.25">
<path d="M365.788 141.085C365.836 141.139 365.904 141.173 365.976 141.179C366.049 141.184 366.12 141.161 366.176 141.114L377.671 131.47C377.728 131.423 377.763 131.355 377.77 131.281C377.776 131.208 377.753 131.135 377.706 131.078C377.657 131.024 377.589 130.99 377.517 130.984C377.444 130.977 377.371 130.999 377.314 131.044L365.818 140.688C365.762 140.735 365.727 140.803 365.72 140.877C365.714 140.951 365.737 141.024 365.784 141.08L365.788 141.085Z" fill="#0C0C0C"/>
</g>
<g opacity="0.25">
<path d="M369.752 146.145C369.8 146.199 369.868 146.233 369.94 146.238C370.012 146.244 370.084 146.221 370.14 146.174L379.311 138.478C379.367 138.431 379.403 138.363 379.409 138.29C379.416 138.216 379.393 138.143 379.345 138.086C379.298 138.03 379.23 137.995 379.156 137.988C379.083 137.982 379.01 138.005 378.953 138.052L369.782 145.745C369.726 145.793 369.691 145.861 369.684 145.934C369.678 146.007 369.701 146.08 369.748 146.137L369.752 146.145Z" fill="#0C0C0C"/>
</g>
<path d="M339.77 138.738L318.287 193.831L286.92 149.788L253.136 180.249L301.519 254.13L301.897 254.665C304.207 257.828 307.284 260.352 310.838 261.997C314.392 263.642 318.307 264.355 322.214 264.07C326.12 263.784 329.889 262.508 333.166 260.363C336.443 258.217 339.12 255.273 340.944 251.807L375.651 158.319L339.77 138.738Z" fill="#008D06"/>
<path d="M315.017 200.66C314.944 200.66 314.873 200.641 314.81 200.606C314.747 200.57 314.694 200.519 314.656 200.457C314.618 200.395 314.596 200.325 314.594 200.252C314.591 200.18 314.607 200.108 314.639 200.043L317.908 193.638C317.96 193.54 318.049 193.466 318.155 193.432C318.261 193.398 318.377 193.408 318.476 193.459C318.575 193.509 318.65 193.597 318.685 193.703C318.72 193.809 318.712 193.924 318.663 194.024L315.394 200.429C315.359 200.498 315.305 200.557 315.238 200.597C315.172 200.638 315.095 200.66 315.017 200.66V200.66Z" fill="#0C0C0C"/>
<path d="M355.635 342.374H34.1786C33.9727 342.368 33.7771 342.282 33.6336 342.135C33.49 341.987 33.4097 341.789 33.4097 341.583C33.4097 341.377 33.49 341.179 33.6336 341.031C33.7771 340.883 33.9727 340.797 34.1786 340.791H355.635C355.841 340.797 356.036 340.883 356.18 341.031C356.323 341.179 356.404 341.377 356.404 341.583C356.404 341.789 356.323 341.987 356.18 342.135C356.036 342.282 355.841 342.368 355.635 342.374Z" fill="#292A2E"/>
<path d="M109.005 87.7332V6.84705C109.005 5.03157 108.284 3.2904 107 2.0064C105.717 0.722406 103.976 0.000708829 102.16 0L7.0199 0C5.20395 0 3.46238 0.721384 2.17831 2.00546C0.894235 3.28953 0.172852 5.0311 0.172852 6.84705L0.172852 67.1586C0.172852 68.9746 0.894235 70.7161 2.17831 72.0002C3.46238 73.2843 5.20395 74.0057 7.0199 74.0057H84.3271L105.889 89.3405C106.184 89.5505 106.531 89.6752 106.892 89.7009C107.253 89.7266 107.615 89.6524 107.937 89.4864C108.258 89.3204 108.528 89.0689 108.717 88.7597C108.905 88.4504 109.005 88.0953 109.005 87.7332V87.7332Z" fill="#2BFF08"/>
<path d="M51.6607 64.1934C53.975 64.1934 55.8511 62.3172 55.8511 60.0029C55.8511 57.6886 53.975 55.8125 51.6607 55.8125C49.3463 55.8125 47.4702 57.6886 47.4702 60.0029C47.4702 62.3172 49.3463 64.1934 51.6607 64.1934Z" fill="#1C172F"/>
<path d="M51.4656 50.9078C50.7421 50.9076 50.0484 50.6201 49.5369 50.1085C49.0254 49.5969 48.7381 48.9031 48.7381 48.1796V38.0478C48.7381 37.4356 48.944 36.8413 49.3228 36.3604C49.7015 35.8795 50.2309 35.54 50.826 35.3965C50.9443 35.3671 63.1473 32.2787 63.1473 24.0669C63.1473 18.9141 58.9228 15.3118 52.8744 15.3118C46.3247 15.3118 42.9577 21.8614 42.818 22.1381C42.4907 22.7754 41.9259 23.2584 41.2455 23.4827C40.5652 23.707 39.8239 23.6548 39.1817 23.3372C38.5396 23.0196 38.0481 22.4621 37.8135 21.7852C37.5789 21.1083 37.62 20.3663 37.9278 19.7194C38.1283 19.3184 42.8962 9.85687 52.8744 9.85687C61.9878 9.85687 68.6022 15.8311 68.6022 24.0636C68.6022 33.985 58.6441 38.5296 54.1937 40.0654V48.1796C54.1935 48.9031 53.906 49.597 53.3944 50.1085C52.8828 50.6201 52.189 50.9076 51.4656 50.9078V50.9078Z" fill="#1C172F"/>
</svg>
