<svg width="390" height="98" viewBox="0 0 390 98" fill="none" xmlns="http://www.w3.org/2000/svg">
<path d="M51.764 35.5667V50.3386H31.3687H30.7135L23.584 56.2073V70.9263H31.3687V56.2073H51.764V70.9263H59.5487V35.5667H51.764Z" fill="white"/>
<path d="M90.9389 35.6433L69.7969 70.9266H77.8986L90.9389 49.1686L96.9342 59.1655H105.036L90.9389 35.6433Z" fill="white"/>
<path d="M108.572 65.0581H100.463L103.978 70.9269H112.087L108.572 65.0581Z" fill="white"/>
<path d="M135.662 41.6062C139.53 41.6062 143.031 42.9175 145.561 45.0345L150.936 41.1063C147.104 37.7368 141.672 35.6433 135.662 35.6433C123.989 35.6433 114.527 43.5409 114.527 53.2849C114.527 63.029 123.989 70.9266 135.662 70.9266C138.558 70.9266 141.313 70.4385 143.821 69.5623L136.219 64.9519C136.036 64.9578 135.853 64.9637 135.662 64.9637C127.934 64.9637 121.671 59.7359 121.671 53.2849C121.671 46.834 127.934 41.6062 135.662 41.6062Z" fill="white"/>
<path d="M184.286 35.6433H173.719L152.584 53.2849L173.719 70.9266H184.286L163.151 53.2849L184.286 35.6433Z" fill="white"/>
<path d="M307.572 35.6433H293.468H287.803H286.43V70.9266H293.468V41.5062H307.572V35.6433Z" fill="white"/>
<path d="M334.605 35.6433H320.254H313.209L320.254 41.5003V41.5239H334.598V41.5297C338.374 41.6356 341.403 44.223 341.403 47.4044C341.403 50.5799 338.374 53.1732 334.598 53.2791V53.2849H320.923H315.358H313.209V70.9266H320.923V59.1361H334.598C342.375 59.1361 348.674 53.8789 348.674 47.3868C348.674 40.9005 342.382 35.6433 334.605 35.6433Z" fill="white"/>
<path d="M390 54.7552L363.934 32.1151V77.3953L390 54.7552Z" fill="white"/>
<path d="M354.344 78.8536V30.6567L382.094 54.7551L354.344 78.8536ZM355.753 33.5735V75.9309L380.136 54.7551L355.753 33.5735Z" fill="white"/>
<path d="M218.118 35.6433V56.8133L189.924 35.6433V44.4641L225.149 70.9266H225.86V35.6433H218.118Z" fill="white"/>
<path d="M19.3254 52.0442C13.1539 52.0442 8.13086 47.8513 8.13086 42.7C8.13086 37.5487 13.1539 33.3558 19.3254 33.3558C25.4968 33.3558 30.5199 37.5487 30.5199 42.7C30.5199 47.8513 25.4968 52.0442 19.3254 52.0442ZM19.3254 33.9439C13.5414 33.9439 8.83536 37.8721 8.83536 42.7C8.83536 47.5279 13.5414 51.4561 19.3254 51.4561C25.1093 51.4561 29.8154 47.5279 29.8154 42.7C29.8154 37.8721 25.1093 33.9439 19.3254 33.9439Z" fill="white"/>
<path d="M38.5811 35.8019C38.0034 34.7669 33.713 35.3432 27.7952 37.0544C28.2883 37.566 28.711 38.1188 29.0562 38.7127C29.7889 38.6716 30.2539 38.7657 30.3877 39.0009C30.5286 39.2479 30.2821 39.6301 29.7185 40.1064C28.2531 41.3472 24.6531 43.2172 20.2359 44.9402C16.2695 46.4927 12.6202 47.5394 10.4081 47.8393C9.21044 48.004 8.43549 47.951 8.25937 47.6335C8.09029 47.3336 8.49185 46.8337 9.33725 46.2104C9.04841 45.6518 8.83001 45.0578 8.68911 44.4463C2.9897 47.2571 -0.532804 49.7623 0.0660221 50.8325C0.678938 51.9263 5.44136 51.2206 11.8875 49.28C14.6492 48.445 17.7208 47.3865 20.9052 46.1457C24.3361 44.805 27.4852 43.4172 30.1412 42.0999C35.7349 39.3243 39.1729 36.8604 38.5811 35.8019Z" fill="white"/>
<path d="M255.448 56.8661H255.441V60.8884H257.709H259.978V56.8661H259.964C261.725 56.3192 263.211 55.1431 264.134 53.6083L275.484 59.9651V48.057L271.236 41.5296C271.405 39.7596 271.496 37.9366 271.496 36.0842C271.496 21.0771 265.705 8.35748 257.709 4C249.713 8.35748 243.922 21.0771 243.922 36.0842C243.922 37.9366 244.014 39.7537 244.183 41.5296L239.935 48.057V59.9651L251.284 53.6083C252.207 55.1431 253.687 56.3192 255.448 56.8661ZM257.702 25.1053C261.161 25.1053 263.972 27.4457 263.972 30.339C263.972 33.2263 261.161 35.5668 257.702 35.5668C254.243 35.5668 251.432 33.2263 251.432 30.339C251.432 27.4457 254.243 25.1053 257.702 25.1053Z" fill="white"/>
<path d="M303.278 83.8632H300.431H291.618C292.351 83.0458 292.759 82.152 292.759 81.2052C292.759 77.9063 287.828 75.1777 281.368 74.6543C281.368 74.6191 281.375 74.5896 281.375 74.5544C281.375 70.7497 275.006 67.5448 266.319 66.5568V62.0876L261.423 59.7472V62.0876V66.2511C261.17 66.2452 260.916 66.2452 260.655 66.2452C260.43 66.2452 260.211 66.2511 259.993 66.2511V62.0935H257.71H255.428V66.5157C254.942 66.5686 254.463 66.6215 253.998 66.6862V62.0935V59.7472L249.102 62.0876V67.6565C244.135 68.9973 240.697 71.1789 240.049 73.6899C238.731 73.49 237.336 73.3783 235.885 73.3783C228.495 73.3783 222.394 76.1715 221.302 79.8174C220.9 79.788 220.492 79.7704 220.076 79.7704C215.666 79.7704 211.876 81.4581 210.262 83.8632H182.695C184.597 87.4268 191.903 90.079 200.625 90.079C202.809 90.079 204.901 89.9143 206.846 89.6085C209.523 94.407 220.287 98 233.166 98C244.875 98 254.836 95.0304 258.563 90.8846C259.246 90.9375 259.937 90.9728 260.655 90.9728C261.191 90.9728 261.719 90.9552 262.24 90.9258C265.354 94.1013 273.999 95.6008 283.7 94.3247C293.57 93.0369 301.354 89.291 302.968 85.4039C305.659 86.2684 310.182 86.8329 315.31 86.8329C323.102 86.8329 329.492 85.5274 330.182 83.8632H303.278Z" fill="white"/>
<path d="M30.224 7.38623L25.2009 22.1816H23.2212L18.7547 9.5679L14.1895 22.1875L12.2592 22.211L7.3418 7.39211H9.24395L13.3019 20.3704L17.8389 7.39211H19.8185L24.2287 20.3704L28.3148 7.39211H30.224V7.38623Z" fill="white"/>
<path d="M34.7114 7.38623V22.1816H32.936V7.38623H34.7114Z" fill="white"/>
<path d="M52.1065 22.1875H50.3312L40.5175 9.73844V22.1875H38.7422V7.38623H40.5175L50.3312 19.8177V7.38623H52.1065V22.1875Z" fill="white"/>
<path d="M66.5127 7.38623V8.61526H61.5953V22.1875H59.82V8.61526H54.8744V7.38623H66.5127Z" fill="white"/>
<path d="M71.1069 8.59769V14.1254H77.8278V15.3544H71.1069V20.9645H78.5887V22.1935H69.3315V7.36865H78.5887V8.59769H71.1069Z" fill="white"/>
<path d="M91.5176 22.1875L87.1286 16.0071H83.8597V22.1875H82.0844V7.38623H87.4104C89.39 7.38623 90.8906 7.78023 91.9121 8.5741C92.9337 9.36209 93.4479 10.4029 93.4479 11.6849C93.4479 12.7552 93.0816 13.6725 92.3419 14.4252C91.6092 15.1779 90.5172 15.6719 89.08 15.8954L93.6452 22.1816H91.5176V22.1875ZM83.8597 14.7957H87.4386C88.8264 14.7957 89.8691 14.5134 90.5736 13.9489C91.2781 13.3844 91.6233 12.6317 91.6233 11.6849C91.6233 10.7087 91.2851 9.9619 90.6088 9.43266C89.9325 8.90341 88.8687 8.63878 87.4104 8.63878H83.8597V14.7957Z" fill="white"/>
<path d="M104.553 11.9612H102.496L104.701 7.38623H105.998L104.553 11.9612Z" fill="white"/>
<path d="M107 0H122V25H107V0Z" fill="black"/>
<path d="M123.715 10.66C123.838 9.386 124.16 8.511 125.263 7.783C126.383 7.041 127.826 6.67 129.594 6.67C130.766 6.67 131.773 6.838 132.613 7.174C133.453 7.51 134.083 7.972 134.503 8.56C134.94 9.134 135.159 9.785 135.159 10.513C135.159 11.395 134.835 12.158 134.188 12.802C133.54 13.446 132.621 13.845 131.431 13.999V14.104C132.674 14.3 133.663 14.734 134.398 15.406C135.133 16.064 135.5 16.932 135.5 18.01C135.5 19.214 134.993 20.201 133.978 20.971C132.98 21.727 131.528 22.105 129.62 22.105C127.8 22.105 126.304 21.727 125.131 20.971C123.959 20.201 123.89 19.284 123.715 17.884H125.5C125.657 18.822 125.543 19.417 126.365 20.005C127.188 20.579 128.273 20.866 129.62 20.866C130.95 20.866 131.965 20.586 132.665 20.026C133.383 19.466 133.741 18.752 133.741 17.884C133.741 15.756 131.825 14.692 127.993 14.692H127.415V13.453H128.019C131.589 13.453 133.374 12.522 133.374 10.66C133.374 9.848 133.041 9.197 132.376 8.707C131.711 8.203 130.766 7.951 129.541 7.951C128.351 7.951 127.363 8.203 126.575 8.707C125.805 9.197 125.64 9.764 125.5 10.66H123.715Z" fill="white"/>
<path d="M115.398 15.7844C117.096 14.2378 117.948 12.7265 117.948 11.2447C117.948 10.2685 117.66 9.49226 117.075 8.9042C116.49 8.31615 115.539 8.02801 114.222 8.02801C112.939 8.02801 111.946 8.3632 111.242 9.03358C110.537 9.70395 110.15 10.5978 110.065 11.7092H108.339C108.438 10.145 109.022 8.92773 110.079 8.05741C111.136 7.18709 112.517 6.75781 114.229 6.75781C115.87 6.75781 117.195 7.14005 118.209 7.9104C119.224 8.68074 119.731 9.76864 119.731 11.18C119.731 12.8853 118.878 14.5436 117.18 16.1431C115.483 17.7426 113.39 19.3068 110.903 20.8299H120.287V22.0766H108.191V21.0181C111.291 19.0775 113.7 17.331 115.398 15.7844Z" fill="white"/>
</svg>
