<svg width="238" height="75" viewBox="0 0 238 75" fill="none" xmlns="http://www.w3.org/2000/svg">
<path d="M137.993 75L93.165 74.9316V60.5139H137.902L137.993 46.6333H93.165V32.2543V0H139.666H153.915V5.27968V17.8783V30.4769V46.5649V74.9316L146.061 75H137.993ZM108.774 30.4769H153.915V17.5737V14.8239H108.774V30.4769Z" fill="#24282B"/>
<path d="M120.393 34.67L120.37 57.4576H97.7529V41.7114H106.393L106.415 50.4163H111.753V34.67H120.393Z" fill="#70CA18"/>
<path d="M148.323 20.588V43.3756H139.683L139.706 27.6294H134.368V36.3343H125.728L125.706 20.588H148.323Z" fill="#70CA18"/>
<path d="M148.325 48.7533H139.686V57.4581H148.325V48.7533Z" fill="#70CA18"/>
<path d="M106.393 20.588H97.7529V29.2929H106.393V20.588Z" fill="#70CA18"/>
<path d="M118.065 24.9177L120.372 22.5933V20.588H118.381L116.052 22.9351L113.722 20.588H111.732V22.5933L114.084 24.9405L111.732 27.2876V29.2929H113.722L116.052 26.9458L118.381 29.2929H120.372V27.2648L118.065 24.9177Z" fill="#70CA18"/>
<path d="M132.038 46.0416L134.345 43.7172V41.7119H132.378L130.025 44.059L127.696 41.7119H125.706V43.7172L128.058 46.0644L125.706 48.4115V50.4168H127.696L130.025 48.0697L132.378 50.4168H134.345V48.3887L132.038 46.0416Z" fill="#70CA18"/>
<path d="M0.859863 50.416V27.4462H5.04408V36.7891H19.9942V27.4462H24.1784V50.416H19.9942V41.0731H5.04408V50.416H0.859863Z" fill="white"/>
<path d="M32.0263 50.4159C30.8722 50.4041 29.7688 49.9369 28.9527 49.1147C28.1366 48.2924 27.6729 47.1807 27.6611 46.0179V39.0449H42.1589V37.1991V36.1965H41.1637H27.6611V31.9124H41.9327C42.51 31.9031 43.083 32.0136 43.6161 32.237C44.1492 32.4605 44.6309 32.7921 45.0313 33.2113C45.4467 33.6104 45.7757 34.0917 45.9975 34.625C46.2194 35.1584 46.3293 35.7322 46.3205 36.3104V50.4159H32.0263ZM32.9084 46.2458H42.1589V42.8277H31.8001V45.1064V46.2458H32.9084Z" fill="white"/>
<path d="M53.6493 50.4164C52.4953 50.4045 51.3918 49.9373 50.5757 49.1151C49.7596 48.2929 49.296 47.1811 49.2842 46.0184V36.3108C49.296 35.1481 49.7596 34.0363 50.5757 33.2141C51.3918 32.3919 52.4953 31.9247 53.6493 31.9128H67.8078V36.083H54.5314H53.4232V37.1996V45.1296V46.2462H54.5314H67.9435V50.4164H53.6493Z" fill="white"/>
<path d="M70.749 50.4168V25.8518H74.9106V39.0458H78.1675L84.7266 31.9133H89.2501V33.1211L81.8315 41.1651L89.1143 49.2775V50.4168H84.7266L78.1675 43.2615H74.9106V50.4168H70.749Z" fill="white"/>
<path d="M156.985 50.416V27.4462H161.509L175.486 44.2178V27.4462H179.716V50.416H175.192L161.147 33.5988V50.416H156.985Z" fill="white"/>
<path d="M183.154 50.416V27.4462H187.293V50.416H183.154Z" fill="white"/>
<path d="M198.265 50.416V31.6847H188.946V27.4462H211.767V31.6847H202.471V50.416H198.265Z" fill="white"/>
<path d="M214.142 50.4172V27.4701H232.484C233.684 27.4701 234.835 27.9503 235.683 28.805C236.531 29.6597 237.008 30.8189 237.008 32.0276V38.2031C237.008 38.7963 236.89 39.3836 236.662 39.9303C236.433 40.477 236.098 40.972 235.676 41.3861C235.255 41.8003 234.755 42.1252 234.207 42.3417C233.659 42.5581 233.073 42.6618 232.484 42.6466H218.303V50.5083L214.142 50.4172ZM219.344 38.2942H231.534H232.53V37.2916V32.8024V31.7997H231.534H219.344H218.235V32.9163V37.3143V38.2942H219.344Z" fill="white"/>
</svg>
