<svg width="233" height="76" viewBox="0 0 233 76" fill="none" xmlns="http://www.w3.org/2000/svg">
<path d="M135.182 75.1684L91.2876 75.0999V60.6572H135.094L135.182 46.7525H91.2876V32.3485V0.038208H136.821H150.774V5.32705V17.9475V30.568V46.684V75.0999L143.083 75.1684H135.182ZM106.572 30.568H150.774V17.6424V14.8878H106.572V30.568Z" fill="#24282B"/>
<path d="M117.949 34.7686L117.926 57.5957H95.7798V41.8221H104.24L104.262 50.5421H109.489V34.7686H117.949Z" fill="#70CA18"/>
<path d="M145.298 20.6619V43.489H136.838L136.86 27.7155H131.633V36.4354H123.173L123.151 20.6619H145.298Z" fill="#70CA18"/>
<path d="M145.3 48.8761H136.84V57.596H145.3V48.8761Z" fill="#70CA18"/>
<path d="M104.24 20.6619H95.7798V29.3818H104.24V20.6619Z" fill="#70CA18"/>
<path d="M115.669 24.999L117.928 22.6707V20.6619H115.979L113.698 23.0131L111.417 20.6619H109.468V22.6707L111.771 25.0219L109.468 27.3731V29.3818H111.417L113.698 27.0307L115.979 29.3818H117.928V27.3502L115.669 24.999Z" fill="#70CA18"/>
<path d="M129.352 46.1598L131.611 43.8314V41.8226H129.684L127.381 44.1738L125.1 41.8226H123.151V43.8314L125.454 46.1826L123.151 48.5338V50.5426H125.1L127.381 48.1914L129.684 50.5426H131.611V48.511L129.352 46.1598Z" fill="#70CA18"/>
<path d="M0.90332 50.5417V27.532H5.00045V36.8911H19.6394V27.532H23.7366V50.5417H19.6394V41.1826H5.00045V50.5417H0.90332Z" fill="white"/>
<path d="M31.4213 50.5417C30.2912 50.5298 29.2107 50.0618 28.4116 49.2382C27.6125 48.4145 27.1585 47.3008 27.147 46.136V39.1509H41.343V37.3019V36.2975H40.3686H27.147V32.006H41.1215C41.6868 31.9967 42.2479 32.1074 42.7699 32.3312C43.2919 32.5551 43.7636 32.8873 44.1556 33.3072C44.5624 33.707 44.8845 34.1891 45.1018 34.7234C45.319 35.2576 45.4267 35.8325 45.418 36.4117V50.5417H31.4213ZM32.285 46.3643H41.343V42.9402H31.1998V45.223V46.3643H32.285Z" fill="white"/>
<path d="M52.5941 50.5421C51.4641 50.5302 50.3836 50.0623 49.5845 49.2386C48.7854 48.4149 48.3314 47.3013 48.3198 46.1365V36.4121C48.3314 35.2473 48.7854 34.1336 49.5845 33.31C50.3836 32.4863 51.4641 32.0184 52.5941 32.0065H66.458V36.1838H53.4579H52.3727V37.3024V45.2462V46.3648H53.4579H66.5908V50.5421H52.5941Z" fill="white"/>
<path d="M69.3379 50.5426V25.9349H73.4129V39.1519H76.602L83.0246 32.007H87.4539V33.2168L80.1898 41.2748L87.321 49.4013V50.5426H83.0246L76.602 43.3749H73.4129V50.5426H69.3379Z" fill="white"/>
<path d="M153.78 50.5417V27.532H158.209L171.896 44.3328V27.532H176.037V50.5417H171.608L157.855 33.6953V50.5417H153.78Z" fill="white"/>
<path d="M179.403 50.5417V27.532H183.456V50.5417H179.403Z" fill="white"/>
<path d="M194.2 50.5417V31.7778H185.076V27.532H207.422V31.7778H198.319V50.5417H194.2Z" fill="white"/>
<path d="M209.746 50.5428V27.5559H227.707C228.882 27.5559 230.008 28.0369 230.839 28.8931C231.67 29.7493 232.136 30.9105 232.136 32.1213V38.3075C232.137 38.9018 232.021 39.4901 231.797 40.0377C231.574 40.5854 231.245 41.0812 230.833 41.4961C230.42 41.911 229.931 42.2364 229.394 42.4533C228.857 42.6702 228.283 42.774 227.707 42.7588H213.821V50.6342L209.746 50.5428ZM214.84 38.3988H226.777H227.751V37.3944V32.8975V31.8931H226.777H214.84H213.755V33.0116V37.4172V38.3988H214.84Z" fill="white"/>
</svg>
