<svg width="586" height="185" viewBox="0 0 586 185" fill="none" xmlns="http://www.w3.org/2000/svg">
<path d="M339.207 184.668L228 184.5V149H338.983L339.207 114.822H228V79.4179V0H343.359H378.708V12.9998V44.0207V75.0415V114.654V184.5L359.222 184.668H339.207ZM266.722 75.0415H378.708V43.2707V36.5H266.722V75.0415Z" fill="#24282B"/>
<path d="M296.533 85.3667L296.477 141.475H240.369V102.704H261.802L261.858 124.138H275.1V85.3667H296.533Z" fill="#70CA18"/>
<path d="M365.822 50.6919V106.801H344.389L344.445 68.0294H331.203V89.463H309.77L309.714 50.6919H365.822Z" fill="#70CA18"/>
<path d="M365.829 120.042H344.395V141.475H365.829V120.042Z" fill="#70CA18"/>
<path d="M261.802 50.6919H240.369V72.1254H261.802V50.6919Z" fill="#70CA18"/>
<path d="M290.759 61.3525L296.482 55.6294V50.6919H291.544L285.765 56.4711L279.986 50.6919H275.048V55.6294L280.883 61.4087L275.048 67.1878V72.1254H279.986L285.765 66.3462L291.544 72.1254H296.482V67.1317L290.759 61.3525Z" fill="#70CA18"/>
<path d="M325.424 113.366L331.147 107.643V102.705H326.266L320.43 108.484L314.651 102.705H309.714V107.643L315.549 113.422L309.714 119.201V124.139H314.651L320.43 118.359L326.266 124.139H331.147V119.145L325.424 113.366Z" fill="#70CA18"/>
<path d="M0 124.137V67.5796H10.3801V90.5841H47.4678V67.5796H57.8479V124.137H47.4678V101.132H10.3801V124.137H0Z" fill="white"/>
<path d="M77.3165 124.137C74.4536 124.108 71.7161 122.958 69.6916 120.933C67.6671 118.909 66.5168 116.171 66.4875 113.308V96.139H102.453V91.5942V89.1254H99.9844H66.4875V78.577H101.892C103.324 78.5541 104.746 78.8262 106.068 79.3764C107.391 79.9266 108.586 80.7432 109.579 81.7752C110.609 82.7578 111.426 83.943 111.976 85.2562C112.526 86.5694 112.799 87.9823 112.777 89.406V124.137H77.3165ZM79.5047 113.869H102.453V105.453H76.7554V111.064V113.869H79.5047Z" fill="white"/>
<path d="M130.959 124.137C128.096 124.108 125.358 122.958 123.334 120.933C121.309 118.909 120.159 116.171 120.13 113.308V89.4061C120.159 86.5431 121.309 83.8057 123.334 81.7812C125.358 79.7566 128.096 78.6064 130.959 78.5771H166.083V88.845H133.147H130.398V91.5943V111.12V113.869H133.147H166.419V124.137H130.959Z" fill="white"/>
<path d="M173.378 124.138V63.6533H183.702V96.1402H191.782L208.054 78.5782H219.275V81.552L200.872 101.358L218.939 121.333V124.138H208.054L191.782 106.52H183.702V124.138H173.378Z" fill="white"/>
<path d="M387.311 124.137V67.5796H398.533L433.208 108.876V67.5796H443.7V124.137H432.479L397.635 82.7289V124.137H387.311Z" fill="white"/>
<path d="M452.229 124.137V67.5796H462.497V124.137H452.229Z" fill="white"/>
<path d="M489.717 124.137V78.0158H466.6V67.5796H523.213V78.0158H500.153V124.137H489.717Z" fill="white"/>
<path d="M529.103 124.139V67.6377H574.607C577.583 67.6377 580.437 68.82 582.542 70.9245C584.646 73.029 585.829 75.8832 585.829 78.8594V94.0649C585.829 95.5256 585.537 96.9716 584.97 98.3177C584.402 99.6638 583.571 100.883 582.525 101.902C581.48 102.922 580.24 103.722 578.88 104.255C577.52 104.788 576.067 105.043 574.607 105.006H539.427V124.363L529.103 124.139ZM542.008 94.2893H572.25H574.719V91.8205V80.7671V78.2983H572.25H542.008H539.258V81.0477V91.8766V94.2893H542.008Z" fill="white"/>
</svg>
