<svg width="273" height="86" viewBox="0 0 273 86" fill="none" xmlns="http://www.w3.org/2000/svg">
<path d="M157.969 86L106.18 85.9216V69.3893H157.865L157.969 53.4728H106.18V36.9849V0H159.903H176.365V6.05403V20.5004V34.9468V53.3944V85.9216L167.29 86H157.969ZM124.213 34.9468H176.365V20.1512V16.9981H124.213V34.9468Z" fill="#24282B"/>
<path d="M138.095 39.7554L138.069 65.8852H111.939V47.8295H121.921L121.947 57.8111H128.114V39.7554H138.095Z" fill="#70CA18"/>
<path d="M170.364 23.6075V49.7373H160.382L160.408 31.6816H154.242V41.6632H144.26L144.234 23.6075H170.364Z" fill="#70CA18"/>
<path d="M170.366 55.9037H160.385V65.8853H170.366V55.9037Z" fill="#70CA18"/>
<path d="M121.921 23.6075H111.939V33.5891H121.921V23.6075Z" fill="#70CA18"/>
<path d="M135.406 28.5722L138.071 25.907V23.6075H135.772L133.081 26.2989L130.389 23.6075H128.09V25.907L130.807 28.5983L128.09 31.2897V33.5891H130.389L133.081 30.8978L135.772 33.5891H138.071V31.2636L135.406 28.5722Z" fill="#70CA18"/>
<path d="M151.55 52.7942L154.215 50.129V47.8296H151.942L149.225 50.521L146.533 47.8296H144.234V50.129L146.951 52.8204L144.234 55.5117V57.8112H146.533L149.225 55.1198L151.942 57.8112H154.215V55.4856L151.55 52.7942Z" fill="#70CA18"/>
<path d="M0 57.8105V31.4717H4.834V42.1849H22.1058V31.4717H26.9398V57.8105H22.1058V47.0973H4.834V57.8105H0Z" fill="white"/>
<path d="M36.0064 57.8104C34.6731 57.7968 33.3983 57.2612 32.4555 56.3183C31.5127 55.3755 30.977 54.1007 30.9634 52.7674V44.7717H47.7126V42.6552V41.5055H46.5629H30.9634V36.5931H47.4513C48.1182 36.5824 48.7802 36.7091 49.3961 36.9653C50.012 37.2216 50.5685 37.6019 51.0311 38.0825C51.511 38.5401 51.891 39.092 52.1473 39.7036C52.4036 40.3151 52.5307 40.9731 52.5205 41.6361V57.8104H36.0064ZM37.0255 53.0287H47.7126V49.1093H35.7451V51.7222V53.0287H37.0255Z" fill="white"/>
<path d="M60.9879 57.8108C59.6546 57.7971 58.3798 57.2615 57.437 56.3186C56.4941 55.3758 55.9584 54.101 55.9448 52.7677V41.6364C55.9584 40.3032 56.4941 39.0283 57.437 38.0855C58.3798 37.1427 59.6546 36.607 60.9879 36.5934H77.3451V41.3751H62.0069H60.7266V42.6555V51.7486V53.029H62.0069H77.5019V57.8108H60.9879Z" fill="white"/>
<path d="M80.7427 57.8111V29.6432H85.5505V44.7723H89.3132L96.8909 36.5937H102.117V37.9786L93.5463 47.2024L101.96 56.5046V57.8111H96.8909L89.3132 49.6063H85.5505V57.8111H80.7427Z" fill="white"/>
<path d="M180.371 57.8105V31.4717H185.597L201.745 50.7033V31.4717H206.632V57.8105H201.406L185.179 38.5268V57.8105H180.371Z" fill="white"/>
<path d="M210.603 57.8105V31.4717H215.385V57.8105H210.603Z" fill="white"/>
<path d="M228.061 57.8105V36.3319H217.295V31.4717H243.66V36.3319H232.921V57.8105H228.061Z" fill="white"/>
<path d="M246.403 57.8115V31.4988H267.595C268.981 31.4988 270.31 32.0494 271.29 33.0294C272.27 34.0095 272.821 35.3387 272.821 36.7247V43.8059C272.821 44.4862 272.685 45.1596 272.421 45.7865C272.156 46.4133 271.769 46.9809 271.282 47.4558C270.795 47.9307 270.218 48.3033 269.585 48.5515C268.951 48.7997 268.275 48.9187 267.595 48.9012H251.211V57.916L246.403 57.8115ZM252.413 43.9104H266.497H267.647V42.7607V37.6132V36.4634H266.497H252.413H251.133V37.7438V42.7868V43.9104H252.413Z" fill="white"/>
</svg>
