<svg width="238" height="75" viewBox="0 0 238 75" fill="none" xmlns="http://www.w3.org/2000/svg">
<path d="M138.165 75L93 74.9316V60.5139H138.074L138.165 46.6333H93V32.2543V0H139.851H154.207V5.27968V17.8783V30.4769V46.5649V74.9316L146.294 75H138.165ZM108.726 30.4769H154.207V17.5737V14.8239H108.726V30.4769Z" fill="#24282B"/>
<path d="M120.432 34.67L120.41 57.4576H97.6221V41.7114H106.327L106.35 50.4163H111.728V34.67H120.432Z" fill="#70CA18"/>
<path d="M148.573 20.588V43.3756H139.868L139.891 27.6294H134.513V36.3343H125.808L125.785 20.588H148.573Z" fill="#70CA18"/>
<path d="M148.575 48.7533H139.871V57.4581H148.575V48.7533Z" fill="#70CA18"/>
<path d="M106.327 20.588H97.6221V29.2929H106.327V20.588Z" fill="#70CA18"/>
<path d="M118.087 24.9177L120.411 22.5933V20.588H118.406L116.059 22.9351L113.712 20.588H111.706V22.5933L114.076 24.9405L111.706 27.2876V29.2929H113.712L116.059 26.9458L118.406 29.2929H120.411V27.2648L118.087 24.9177Z" fill="#70CA18"/>
<path d="M132.166 46.0416L134.49 43.7172V41.7119H132.508L130.138 44.059L127.79 41.7119H125.785V43.7172L128.155 46.0644L125.785 48.4115V50.4168H127.79L130.138 48.0697L132.508 50.4168H134.49V48.3887L132.166 46.0416Z" fill="#70CA18"/>
<path d="M0 50.416V27.4462H4.2157V36.7891H19.2783V27.4462H23.494V50.416H19.2783V41.0731H4.2157V50.416H0Z" fill="white"/>
<path d="M31.4009 50.4159C30.2382 50.4041 29.1264 49.9369 28.3042 49.1147C27.482 48.2924 27.0148 47.1807 27.0029 46.0179V39.0449H41.6098V37.1991V36.1965H40.6071H27.0029V31.9124H41.3819C41.9636 31.9031 42.5409 32.0136 43.078 32.237C43.6151 32.4605 44.1004 32.7921 44.5038 33.2113C44.9223 33.6104 45.2538 34.0917 45.4773 34.625C45.7008 35.1584 45.8116 35.7322 45.8027 36.3104V50.4159H31.4009ZM32.2897 46.2458H41.6098V42.8277H31.1731V45.1064V46.2458H32.2897Z" fill="white"/>
<path d="M53.1866 50.4164C52.0238 50.4045 50.9121 49.9373 50.0898 49.1151C49.2676 48.2929 48.8004 47.1811 48.7886 46.0184V36.3108C48.8004 35.1481 49.2676 34.0363 50.0898 33.2141C50.9121 32.3919 52.0238 31.9247 53.1866 31.9128H67.4516V36.083H54.0753H52.9587V37.1996V45.1296V46.2462H54.0753H67.5883V50.4164H53.1866Z" fill="white"/>
<path d="M70.4148 50.4168V25.8518H74.6077V39.0458H77.8891L84.4975 31.9133H89.0551V33.1211L81.5807 41.1651L88.9183 49.2775V50.4168H84.4975L77.8891 43.2615H74.6077V50.4168H70.4148Z" fill="white"/>
<path d="M157.3 50.416V27.4462H161.858L175.941 44.2178V27.4462H180.202V50.416H175.644L161.493 33.5988V50.416H157.3Z" fill="white"/>
<path d="M183.666 50.416V27.4462H187.836V50.416H183.666Z" fill="white"/>
<path d="M198.89 50.416V31.6847H189.502V27.4462H212.495V31.6847H203.129V50.416H198.89Z" fill="white"/>
<path d="M214.886 50.4172V27.4701H233.367C234.576 27.4701 235.735 27.9503 236.59 28.805C237.445 29.6597 237.925 30.8189 237.925 32.0276V38.2031C237.925 38.7963 237.806 39.3836 237.576 39.9303C237.346 40.477 237.008 40.972 236.583 41.3861C236.158 41.8003 235.655 42.1252 235.103 42.3417C234.55 42.5581 233.96 42.6618 233.367 42.6466H219.079V50.5083L214.886 50.4172ZM220.128 38.2942H232.41H233.413V37.2916V32.8024V31.7997H232.41H220.128H219.011V32.9163V37.3143V38.2942H220.128Z" fill="white"/>
</svg>
