<svg width="238" height="76" viewBox="0 0 238 76" fill="none" xmlns="http://www.w3.org/2000/svg">
<path d="M138.165 75.8757L93 75.8067V61.2588H138.074L138.165 47.2529H93V32.7441V0.198608H139.851H154.207V5.52595V18.2383V30.9506V47.1839V75.8067L146.294 75.8757H138.165ZM108.726 30.9506H154.207V17.9309V15.1563H108.726V30.9506Z" fill="#24282B"/>
<path d="M120.432 35.1816L120.41 58.175H97.6221V42.2866H106.327L106.35 51.07H111.728V35.1816H120.432Z" fill="#70CA18"/>
<path d="M148.573 20.9724V43.9657H139.868L139.891 28.0773H134.513V36.8608H125.808L125.785 20.9724H148.573Z" fill="#70CA18"/>
<path d="M148.575 49.3921H139.871V58.1755H148.575V49.3921Z" fill="#70CA18"/>
<path d="M106.327 20.9724H97.6221V29.7559H106.327V20.9724Z" fill="#70CA18"/>
<path d="M118.087 25.3411L120.411 22.9958V20.9724H118.406L116.059 23.3407L113.712 20.9724H111.706V22.9958L114.076 25.3641L111.706 27.7325V29.7559H113.712L116.059 27.3876L118.406 29.7559H120.411V27.7095L118.087 25.3411Z" fill="#70CA18"/>
<path d="M132.166 46.6558L134.49 44.3105V42.2871H132.508L130.138 44.6554L127.791 42.2871H125.785V44.3105L128.155 46.6788L125.785 49.0471V51.0706H127.791L130.138 48.7022L132.508 51.0706H134.49V49.0241L132.166 46.6558Z" fill="#70CA18"/>
<path d="M0 51.0698V27.8926H4.2157V37.3198H19.2783V27.8926H23.494V51.0698H19.2783V41.6426H4.2157V51.0698H0Z" fill="white"/>
<path d="M31.4009 51.0697C30.2382 51.0577 29.1264 50.5863 28.3042 49.7567C27.482 48.927 27.0148 47.8052 27.0029 46.632V39.596H41.6098V37.7336V36.7218H40.6071H27.0029V32.3991H41.3819C41.9636 32.3897 42.5409 32.5012 43.078 32.7267C43.6151 32.9522 44.1004 33.2868 44.5038 33.7097C44.9223 34.1124 45.2538 34.5981 45.4773 35.1362C45.7008 35.6744 45.8116 36.2534 45.8027 36.8368V51.0697H31.4009ZM32.2897 46.8619H41.6098V43.4129H31.1731V45.7122V46.8619H32.2897Z" fill="white"/>
<path d="M53.1866 51.0701C52.0238 51.0581 50.9121 50.5867 50.0898 49.7571C49.2676 48.9274 48.8004 47.8056 48.7886 46.6324V36.8372C48.8004 35.664 49.2676 34.5422 50.0898 33.7125C50.9121 32.8829 52.0238 32.4115 53.1866 32.3995H67.4516V36.6073H54.0753H52.9587V37.734V45.7357V46.8623H54.0753H67.5883V51.0701H53.1866Z" fill="white"/>
<path d="M70.4148 51.0706V26.2838H74.6077V39.597H77.8891L84.4975 32.4H89.0551V33.6187L81.5807 41.7353L88.9183 49.9209V51.0706H84.4975L77.8891 43.8507H74.6077V51.0706H70.4148Z" fill="white"/>
<path d="M157.3 51.0698V27.8926H161.858L175.941 44.8157V27.8926H180.202V51.0698H175.644L161.493 34.1008V51.0698H157.3Z" fill="white"/>
<path d="M183.666 51.0698V27.8926H187.836V51.0698H183.666Z" fill="white"/>
<path d="M198.89 51.0698V32.1693H189.502V27.8926H212.495V32.1693H203.129V51.0698H198.89Z" fill="white"/>
<path d="M214.886 51.071V27.9167H233.367C234.576 27.9167 235.735 28.4013 236.59 29.2637C237.445 30.1261 237.925 31.2958 237.925 32.5154V38.7466C237.925 39.3452 237.806 39.9378 237.576 40.4894C237.346 41.041 237.008 41.5405 236.583 41.9584C236.158 42.3763 235.655 42.7041 235.103 42.9226C234.55 43.141 233.96 43.2456 233.367 43.2303H219.079V51.163L214.886 51.071ZM220.128 38.8386H232.41H233.413V37.8269V33.2972V32.2855H232.41H220.128H219.011V33.4122V37.8499V38.8386H220.128Z" fill="white"/>
</svg>
