<svg width="67" height="67" viewBox="0 0 67 67" fill="none" xmlns="http://www.w3.org/2000/svg">
<path opacity="0.4" d="M33.9279 60.8223C18.7616 60.8223 6.42788 48.4858 6.42788 33.3223C6.42788 18.1588 18.7616 5.82233 33.9279 5.82233C49.0914 5.82233 61.4279 18.1588 61.4279 33.3223C61.4279 48.4858 49.0914 60.8223 33.9279 60.8223" fill="#130F26"/>
<path d="M37.8945 44.9292C37.3692 44.9292 36.8412 44.7285 36.4397 44.327L26.8505 34.7845C26.4627 34.3967 26.2455 33.8715 26.2455 33.3215C26.2455 32.7742 26.4627 32.249 26.8505 31.8612L36.4397 22.3132C37.2455 21.5102 38.549 21.5102 39.3547 22.3187C40.1577 23.1272 40.155 24.4335 39.3492 25.2365L31.2285 33.3215L39.3492 41.4065C40.155 42.2095 40.1577 43.513 39.3547 44.3215C38.9532 44.7285 38.4225 44.9292 37.8945 44.9292" fill="#130F26"/>
</svg>
