<svg width="67" height="67" viewBox="0 0 67 67" fill="none" xmlns="http://www.w3.org/2000/svg">
<path opacity="0.4" d="M33.6335 5.58149C48.7997 5.58149 61.1335 17.918 61.1335 33.0815C61.1335 48.245 48.7997 60.5815 33.6335 60.5815C18.47 60.5815 6.13348 48.245 6.13348 33.0815C6.13348 17.918 18.47 5.58149 33.6335 5.58149" fill="#130F26"/>
<path d="M29.6669 21.4746C30.1921 21.4746 30.7201 21.6753 31.1216 22.0768L40.7109 31.6193C41.0986 32.0071 41.3159 32.5323 41.3159 33.0823C41.3159 33.6296 41.0986 34.1548 40.7109 34.5426L31.1216 44.0906C30.3159 44.8936 29.0124 44.8936 28.2066 44.0851C27.4036 43.2766 27.4064 41.9703 28.2121 41.1673L36.3329 33.0823L28.2121 24.9973C27.4064 24.1943 27.4036 22.8908 28.2066 22.0823C28.6081 21.6753 29.1389 21.4746 29.6669 21.4746" fill="#130F26"/>
</svg>
